<svg width="17" height="25" viewBox="0 0 17 25" fill="none" xmlns="http://www.w3.org/2000/svg">
<path d="M8.5 11.875C7.69488 11.875 6.92273 11.5458 6.35343 10.9597C5.78412 10.3737 5.46429 9.5788 5.46429 8.75C5.46429 7.9212 5.78412 7.12634 6.35343 6.54029C6.92273 5.95424 7.69488 5.625 8.5 5.625C9.30512 5.625 10.0773 5.95424 10.6466 6.54029C11.2159 7.12634 11.5357 7.9212 11.5357 8.75C11.5357 9.5788 11.2159 10.3737 10.6466 10.9597C10.0773 11.5458 9.30512 11.875 8.5 11.875ZM8.5 0C6.24566 0 4.08365 0.921872 2.48959 2.56282C0.895533 4.20376 0 6.42936 0 8.75C0 15.3125 8.5 25 8.5 25C8.5 25 17 15.3125 17 8.75C17 6.42936 16.1045 4.20376 14.5104 2.56282C12.9163 0.921872 10.7543 0 8.5 0Z" fill="#F0B725"/>
</svg>
