<svg width="120" height="35" viewBox="0 0 120 35" fill="none" xmlns="http://www.w3.org/2000/svg">
<mask id="mask0_227_254" style="mask-type:luminance" maskUnits="userSpaceOnUse" x="106" y="5" width="14" height="13">
<path d="M119.853 5.97266H106.415V17.1711H119.853V5.97266Z" fill="white"/>
</mask>
<g mask="url(#mask0_227_254)">
<path d="M106.788 6.3457V13.8113H111.267V16.051L114.627 13.8113H119.479V6.3457H106.788Z" stroke="#EA1A3C" stroke-width="0.746558"/>
<path d="M115.187 12.5982H112.387V8.95874L114.347 6.99902L114.697 7.34897C114.73 7.38163 114.756 7.42596 114.778 7.48195C114.798 7.53794 114.809 7.5916 114.809 7.64293V7.74092L114.501 8.95874H116.027C116.176 8.95874 116.307 9.01473 116.419 9.12671C116.531 9.2387 116.587 9.36934 116.587 9.51866V10.0786C116.587 10.1112 116.583 10.1462 116.576 10.1836C116.569 10.2209 116.559 10.2559 116.545 10.2885L115.705 12.2623C115.663 12.3556 115.593 12.4349 115.495 12.5002C115.397 12.5655 115.294 12.5982 115.187 12.5982ZM111.827 8.95874V12.5982H110.708V8.95874H111.827Z" fill="#EA1A3C"/>
</g>
<path d="M6.7921 29.6271L2.6699 29.6168C2.69741 30.0742 2.88486 30.4698 3.23225 30.8034C3.58307 31.137 3.99409 31.3038 4.4653 31.3038C4.78173 31.3038 5.0758 31.2333 5.34752 31.0923C5.61924 30.9513 5.81185 30.8103 5.92535 30.6692L6.10592 30.4629L6.58057 30.9375C6.55993 30.965 6.52898 31.0046 6.4877 31.0562C6.44987 31.1043 6.36388 31.1886 6.22974 31.309C6.09904 31.4259 5.95631 31.5308 5.80153 31.6237C5.65019 31.7131 5.45242 31.7974 5.20822 31.8765C4.96746 31.9522 4.71982 31.99 4.4653 31.99C3.77397 31.99 3.17894 31.7338 2.68022 31.2213C2.18149 30.7054 1.93213 30.0811 1.93213 29.3485C1.93213 28.6159 2.17805 27.9933 2.6699 27.4809C3.16518 26.9649 3.74645 26.707 4.41371 26.707C5.10504 26.707 5.68287 26.9477 6.1472 27.4293C6.61152 27.9074 6.84369 28.5127 6.84369 29.2453L6.7921 29.6271ZM5.54873 27.8472C5.23574 27.5479 4.8574 27.3983 4.41371 27.3983C3.97001 27.3983 3.58307 27.5548 3.25289 27.8678C2.9227 28.1808 2.72837 28.5523 2.6699 28.9822H6.10592C6.05089 28.5247 5.86516 28.1464 5.54873 27.8472ZM8.85805 31.2213C8.35932 30.7054 8.10996 30.0811 8.10996 29.3485C8.10996 28.6159 8.35932 27.9933 8.85805 27.4809C9.36021 26.9649 9.95523 26.707 10.6431 26.707C11.0387 26.707 11.4067 26.793 11.7472 26.9649C12.0911 27.1335 12.3371 27.302 12.485 27.4705L12.7068 27.713L12.1754 28.2393C12.1617 28.2186 12.141 28.1894 12.1135 28.1516C12.086 28.1137 12.0241 28.0449 11.9278 27.9452C11.8349 27.8454 11.7334 27.7595 11.6234 27.6872C11.5133 27.6116 11.3706 27.5445 11.1952 27.486C11.0197 27.4276 10.8357 27.3983 10.6431 27.3983C10.1582 27.3983 9.73683 27.5875 9.37912 27.9658C9.02486 28.3407 8.84773 28.8033 8.84773 29.3537C8.84773 29.9005 9.02486 30.3631 9.37912 30.7415C9.73683 31.1164 10.1582 31.3038 10.6431 31.3038C10.9389 31.3038 11.2192 31.2333 11.4841 31.0923C11.7489 30.9513 11.9415 30.8103 12.0619 30.6692L12.2322 30.4629L12.7584 30.9375C12.7378 30.965 12.7051 31.0046 12.6604 31.0562C12.6191 31.1043 12.5297 31.1886 12.3921 31.309C12.2545 31.4259 12.1101 31.5308 11.9587 31.6237C11.8074 31.7131 11.6113 31.7974 11.3706 31.8765C11.1333 31.9522 10.8908 31.99 10.6431 31.99C9.9518 31.99 9.35677 31.7338 8.85805 31.2213ZM17.7548 30.7415C18.1194 30.3631 18.3016 29.9005 18.3016 29.3537C18.3016 28.8033 18.1194 28.3407 17.7548 27.9658C17.3936 27.5875 16.9585 27.3983 16.4495 27.3983C15.9439 27.3983 15.5088 27.5875 15.1442 27.9658C14.7831 28.3407 14.6025 28.8016 14.6025 29.3485C14.6025 29.8919 14.7831 30.3545 15.1442 30.7363C15.5088 31.1147 15.9439 31.3038 16.4495 31.3038C16.9585 31.3038 17.3936 31.1164 17.7548 30.7415ZM14.618 31.2264C14.1158 30.7174 13.8647 30.0931 13.8647 29.3537C13.8647 28.6107 14.1158 27.9847 14.618 27.4757C15.1236 26.9632 15.7358 26.707 16.4547 26.707C17.1735 26.707 17.784 26.9632 18.2862 27.4757C18.7883 27.9847 19.0394 28.6107 19.0394 29.3537C19.0394 30.0931 18.7883 30.7174 18.2862 31.2264C17.784 31.7355 17.1735 31.99 16.4547 31.99C15.7358 31.99 15.1236 31.7355 14.618 31.2264ZM27.4409 31.8868V28.8738C27.4409 28.4026 27.3239 28.0398 27.09 27.7853C26.8596 27.5273 26.5552 27.3983 26.1769 27.3983C25.7882 27.3983 25.4614 27.5514 25.1966 27.8575C24.9318 28.1636 24.7993 28.5729 24.7993 29.0854V31.8868H24.0616V28.8738C24.0616 28.4095 23.9446 28.0484 23.7108 27.7904C23.4803 27.529 23.1742 27.3983 22.7924 27.3983C22.4038 27.3983 22.077 27.5514 21.8122 27.8575C21.5508 28.1636 21.4201 28.5729 21.4201 29.0854V31.8868H20.6823V26.8153H21.4201V27.4499C21.4338 27.4293 21.451 27.4035 21.4717 27.3725C21.4923 27.3381 21.5439 27.2797 21.6264 27.1971C21.7124 27.1111 21.807 27.0355 21.9102 26.9701C22.0134 26.9013 22.1475 26.8411 22.3126 26.7895C22.4777 26.7345 22.6548 26.707 22.844 26.707C23.071 26.707 23.2825 26.7397 23.4786 26.805C23.6781 26.8669 23.8346 26.9409 23.9481 27.0269C24.065 27.1094 24.1648 27.1954 24.2473 27.2848C24.3333 27.3742 24.3952 27.4499 24.433 27.5118L24.4846 27.6098C24.4984 27.5892 24.5173 27.5583 24.5414 27.517C24.5655 27.4723 24.6291 27.3983 24.7323 27.2951C24.8355 27.1919 24.9455 27.1008 25.0625 27.0217C25.1828 26.9391 25.3462 26.8669 25.5526 26.805C25.7624 26.7397 25.9877 26.707 26.2284 26.707C26.8063 26.707 27.2758 26.8979 27.6369 27.2797C28.0015 27.6614 28.1838 28.1928 28.1838 28.8738V31.8868H27.4409ZM36.9515 31.8868V28.8738C36.9515 28.4026 36.8346 28.0398 36.6007 27.7853C36.3703 27.5273 36.0659 27.3983 35.6875 27.3983C35.2989 27.3983 34.9721 27.5514 34.7073 27.8575C34.4424 28.1636 34.31 28.5729 34.31 29.0854V31.8868H33.5723V28.8738C33.5723 28.4095 33.4553 28.0484 33.2214 27.7904C32.991 27.529 32.6849 27.3983 32.3031 27.3983C31.9144 27.3983 31.5877 27.5514 31.3228 27.8575C31.0614 28.1636 30.9307 28.5729 30.9307 29.0854V31.8868H30.193V26.8153H30.9307V27.4499C30.9445 27.4293 30.9617 27.4035 30.9823 27.3725C31.003 27.3381 31.0546 27.2797 31.1371 27.1971C31.2231 27.1111 31.3177 27.0355 31.4209 26.9701C31.5241 26.9013 31.6582 26.8411 31.8233 26.7895C31.9884 26.7345 32.1655 26.707 32.3547 26.707C32.5817 26.707 32.7932 26.7397 32.9893 26.805C33.1888 26.8669 33.3452 26.9409 33.4588 27.0269C33.5757 27.1094 33.6754 27.1954 33.758 27.2848C33.844 27.3742 33.9059 27.4499 33.9437 27.5118L33.9953 27.6098C34.0091 27.5892 34.028 27.5583 34.0521 27.517C34.0761 27.4723 34.1398 27.3983 34.2429 27.2951C34.3461 27.1919 34.4562 27.1008 34.5731 27.0217C34.6935 26.9391 34.8569 26.8669 35.0633 26.805C35.2731 26.7397 35.4984 26.707 35.7391 26.707C36.3169 26.707 36.7864 26.8979 37.1476 27.2797C37.5122 27.6614 37.6945 28.1928 37.6945 28.8738V31.8868H36.9515ZM44.1922 29.6271L40.07 29.6168C40.0975 30.0742 40.2849 30.4698 40.6323 30.8034C40.9831 31.137 41.3941 31.3038 41.8654 31.3038C42.1818 31.3038 42.4759 31.2333 42.7476 31.0923C43.0193 30.9513 43.2119 30.8103 43.3254 30.6692L43.506 30.4629L43.9806 30.9375C43.96 30.965 43.929 31.0046 43.8878 31.0562C43.8499 31.1043 43.7639 31.1886 43.6298 31.309C43.4991 31.4259 43.3564 31.5308 43.2016 31.6237C43.0502 31.7131 42.8525 31.7974 42.6083 31.8765C42.3675 31.9522 42.1199 31.99 41.8654 31.99C41.174 31.99 40.579 31.7338 40.0803 31.2213C39.5815 30.7054 39.3322 30.0811 39.3322 29.3485C39.3322 28.6159 39.5781 27.9933 40.07 27.4809C40.5652 26.9649 41.1465 26.707 41.8138 26.707C42.5051 26.707 43.0829 26.9477 43.5473 27.4293C44.0116 27.9074 44.2437 28.5127 44.2437 29.2453L44.1922 29.6271ZM42.9488 27.8472C42.6358 27.5479 42.2575 27.3983 41.8138 27.3983C41.3701 27.3983 40.9831 27.5548 40.6529 27.8678C40.3228 28.1808 40.1284 28.5523 40.07 28.9822H43.506C43.4509 28.5247 43.2652 28.1464 42.9488 27.8472ZM48.523 26.707V27.4499H48.2031C47.7663 27.4499 47.3931 27.6012 47.0836 27.9039C46.774 28.2066 46.6192 28.6004 46.6192 29.0854V31.8868H45.8815V26.8153H46.6192V27.5015C46.633 27.4809 46.6536 27.4533 46.6812 27.419C46.7087 27.3811 46.774 27.3175 46.8772 27.2281C46.9804 27.1352 47.0905 27.0544 47.2074 26.9856C47.3278 26.9134 47.486 26.8497 47.682 26.7947C47.8815 26.7362 48.0913 26.707 48.3115 26.707H48.523ZM50.2175 31.2213C49.7188 30.7054 49.4694 30.0811 49.4694 29.3485C49.4694 28.6159 49.7188 27.9933 50.2175 27.4809C50.7196 26.9649 51.3147 26.707 52.0026 26.707C52.3981 26.707 52.7661 26.793 53.1066 26.9649C53.4506 27.1335 53.6965 27.302 53.8444 27.4705L54.0662 27.713L53.5348 28.2393C53.5211 28.2186 53.5004 28.1894 53.4729 28.1516C53.4454 28.1137 53.3835 28.0449 53.2872 27.9452C53.1943 27.8454 53.0929 27.7595 52.9828 27.6872C52.8727 27.6116 52.73 27.5445 52.5546 27.486C52.3792 27.4276 52.1952 27.3983 52.0026 27.3983C51.5176 27.3983 51.0963 27.5875 50.7386 27.9658C50.3843 28.3407 50.2072 28.8033 50.2072 29.3537C50.2072 29.9005 50.3843 30.3631 50.7386 30.7415C51.0963 31.1164 51.5176 31.3038 52.0026 31.3038C52.2984 31.3038 52.5787 31.2333 52.8435 31.0923C53.1083 30.9513 53.301 30.8103 53.4213 30.6692L53.5916 30.4629L54.1178 30.9375C54.0972 30.965 54.0645 31.0046 54.0198 31.0562C53.9785 31.1043 53.8891 31.1886 53.7515 31.309C53.6139 31.4259 53.4695 31.5308 53.3182 31.6237C53.1668 31.7131 52.9708 31.7974 52.73 31.8765C52.4927 31.9522 52.2502 31.99 52.0026 31.99C51.3112 31.99 50.7162 31.7338 50.2175 31.2213ZM60.0841 29.6271L55.9619 29.6168C55.9895 30.0742 56.1769 30.4698 56.5243 30.8034C56.8751 31.137 57.2861 31.3038 57.7573 31.3038C58.0738 31.3038 58.3678 31.2333 58.6396 31.0923C58.9113 30.9513 59.1039 30.8103 59.2174 30.6692L59.398 30.4629L59.8726 30.9375C59.852 30.965 59.821 31.0046 59.7797 31.0562C59.7419 31.1043 59.6559 31.1886 59.5218 31.309C59.3911 31.4259 59.2483 31.5308 59.0936 31.6237C58.9422 31.7131 58.7445 31.7974 58.5003 31.8765C58.2595 31.9522 58.0119 31.99 57.7573 31.99C57.066 31.99 56.471 31.7338 55.9723 31.2213C55.4735 30.7054 55.2242 30.0811 55.2242 29.3485C55.2242 28.6159 55.4701 27.9933 55.9619 27.4809C56.4572 26.9649 57.0385 26.707 57.7057 26.707C58.3971 26.707 58.9749 26.9477 59.4392 27.4293C59.9036 27.9074 60.1357 28.5127 60.1357 29.2453L60.0841 29.6271ZM58.8408 27.8472C58.5278 27.5479 58.1494 27.3983 57.7057 27.3983C57.2621 27.3983 56.8751 27.5548 56.5449 27.8678C56.2147 28.1808 56.0204 28.5523 55.9619 28.9822H59.398C59.3429 28.5247 59.1572 28.1464 58.8408 27.8472ZM67.5408 28.9822L69.4962 28.6623C69.4962 28.2874 69.3775 27.983 69.1402 27.7491C68.9029 27.5153 68.5985 27.3983 68.227 27.3983C67.9587 27.3983 67.7059 27.4602 67.4686 27.584C67.2347 27.7044 67.0645 27.8282 66.9578 27.9555L66.7979 28.1361L66.3233 27.6614C66.3439 27.6339 66.3714 27.5995 66.4058 27.5583C66.4436 27.5135 66.5227 27.4379 66.6431 27.3312C66.7669 27.2212 66.8959 27.1232 67.0301 27.0372C67.1642 26.9512 67.3396 26.8755 67.5563 26.8102C67.7764 26.7414 68 26.707 68.227 26.707C68.8048 26.707 69.2829 26.8944 69.6613 27.2693C70.043 27.6442 70.2339 28.1086 70.2339 28.6623V31.8868H69.4962V31.2006C69.4824 31.2213 69.46 31.2505 69.4291 31.2884C69.4016 31.3227 69.3362 31.3864 69.233 31.4792C69.1333 31.5687 69.025 31.6495 68.908 31.7217C68.7911 31.7905 68.6363 31.8524 68.4437 31.9075C68.2545 31.9625 68.0585 31.99 67.8555 31.99C67.3499 31.99 66.9234 31.8404 66.5761 31.5412C66.2321 31.2419 66.0601 30.8997 66.0601 30.5145C66.0601 30.0914 66.1874 29.7509 66.4419 29.493C66.6964 29.2316 67.0627 29.0613 67.5408 28.9822ZM67.8555 31.3038C68.3336 31.3038 68.7257 31.1473 69.0318 30.8343C69.3414 30.5214 69.4962 30.1155 69.4962 29.6168V29.2969L67.7524 29.6168C67.1195 29.7372 66.8013 30.0364 66.7979 30.5145C66.7979 30.7415 66.8908 30.9306 67.0765 31.082C67.2657 31.2299 67.5253 31.3038 67.8555 31.3038ZM75.932 31.5721V30.9375C75.9182 30.9582 75.8976 30.9874 75.87 31.0252C75.8425 31.0631 75.7772 31.1319 75.674 31.2316C75.5742 31.3313 75.4642 31.4191 75.3438 31.4947C75.2234 31.5669 75.0635 31.634 74.864 31.6959C74.6679 31.7544 74.4616 31.7836 74.2449 31.7836C73.6052 31.7836 73.048 31.5377 72.5733 31.0459C72.1021 30.5506 71.8665 29.9504 71.8665 29.2453C71.8665 28.5402 72.1021 27.9418 72.5733 27.4499C73.0445 26.9546 73.6017 26.707 74.2449 26.707C74.4616 26.707 74.6662 26.7362 74.8588 26.7947C75.0549 26.8497 75.2165 26.9202 75.3438 27.0062C75.4711 27.0888 75.5794 27.173 75.6688 27.259C75.7617 27.345 75.8288 27.4155 75.87 27.4705L75.932 27.5531V26.8153H76.6749V31.5721C76.6749 32.2841 76.4324 32.8843 75.9474 33.3727C75.4659 33.8611 74.8795 34.1053 74.1881 34.1053C73.9199 34.1053 73.6636 34.0674 73.4194 33.9918C73.1787 33.9195 72.9809 33.8318 72.8261 33.7287C72.6713 33.6289 72.5338 33.5274 72.4134 33.4243C72.2964 33.3211 72.2122 33.2316 72.1606 33.156L72.078 33.0476L72.5527 32.573C72.5664 32.5936 72.5888 32.6229 72.6197 32.6607C72.6541 32.702 72.7229 32.7708 72.8261 32.8671C72.9327 32.9668 73.0445 33.0528 73.1615 33.125C73.2784 33.2007 73.4297 33.2678 73.6155 33.3262C73.8012 33.3881 73.9921 33.4191 74.1881 33.4191C74.6662 33.4191 75.0755 33.242 75.416 32.8877C75.76 32.5334 75.932 32.0949 75.932 31.5721ZM73.0996 27.9349C72.7694 28.2926 72.6043 28.7294 72.6043 29.2453C72.6043 29.7612 72.7694 30.198 73.0996 30.5557C73.4332 30.9135 73.815 31.0923 74.2449 31.0923C74.7023 31.0923 75.0979 30.9152 75.4315 30.5609C75.7651 30.2066 75.932 29.7681 75.932 29.2453C75.932 28.7225 75.7651 28.284 75.4315 27.9297C75.0979 27.5754 74.7023 27.3983 74.2449 27.3983C73.815 27.3983 73.4332 27.5772 73.0996 27.9349ZM83.1726 29.6271L79.0504 29.6168C79.0779 30.0742 79.2653 30.4698 79.6127 30.8034C79.9636 31.137 80.3746 31.3038 80.8458 31.3038C81.1622 31.3038 81.4563 31.2333 81.728 31.0923C81.9997 30.9513 82.1923 30.8103 82.3058 30.6692L82.4864 30.4629L82.961 30.9375C82.9404 30.965 82.9095 31.0046 82.8682 31.0562C82.8303 31.1043 82.7444 31.1886 82.6102 31.309C82.4795 31.4259 82.3368 31.5308 82.182 31.6237C82.0307 31.7131 81.8329 31.7974 81.5887 31.8765C81.3479 31.9522 81.1003 31.99 80.8458 31.99C80.1544 31.99 79.5594 31.7338 79.0607 31.2213C78.562 30.7054 78.3126 30.0811 78.3126 29.3485C78.3126 28.6159 78.5585 27.9933 79.0504 27.4809C79.5457 26.9649 80.1269 26.707 80.7942 26.707C81.4855 26.707 82.0633 26.9477 82.5277 27.4293C82.992 27.9074 83.2242 28.5127 83.2242 29.2453L83.1726 29.6271ZM81.9292 27.8472C81.6162 27.5479 81.2379 27.3983 80.7942 27.3983C80.3505 27.3983 79.9636 27.5548 79.6334 27.8678C79.3032 28.1808 79.1088 28.5523 79.0504 28.9822H82.4864C82.4314 28.5247 82.2456 28.1464 81.9292 27.8472ZM85.5997 26.8153V27.5531C85.6134 27.5325 85.6341 27.5032 85.6616 27.4654C85.6891 27.4276 85.7544 27.3588 85.8576 27.259C85.9608 27.1593 86.0692 27.0733 86.1827 27.0011C86.2996 26.9254 86.4527 26.8583 86.6418 26.7998C86.8344 26.7379 87.0322 26.707 87.2351 26.707C87.8474 26.707 88.3444 26.9048 88.7261 27.3003C89.1079 27.6958 89.2988 28.2203 89.2988 28.8738V31.8868H88.5559V28.8738C88.5559 28.4302 88.4269 28.0742 88.169 27.8059C87.9144 27.5342 87.586 27.3983 87.1835 27.3983C86.733 27.3983 86.3564 27.5565 86.0537 27.873C85.751 28.1894 85.5997 28.5935 85.5997 29.0854V31.8868H84.8619V26.8153H85.5997ZM91.6846 31.2213C91.1859 30.7054 90.9365 30.0811 90.9365 29.3485C90.9365 28.6159 91.1859 27.9933 91.6846 27.4809C92.1868 26.9649 92.7818 26.707 93.4697 26.707C93.8653 26.707 94.2333 26.793 94.5738 26.9649C94.9177 27.1335 95.1637 27.302 95.3115 27.4705L95.5334 27.713L95.002 28.2393C94.9882 28.2186 94.9676 28.1894 94.9401 28.1516C94.9126 28.1137 94.8507 28.0449 94.7544 27.9452C94.6615 27.8454 94.56 27.7595 94.45 27.6872C94.3399 27.6116 94.1972 27.5445 94.0217 27.486C93.8463 27.4276 93.6623 27.3983 93.4697 27.3983C92.9848 27.3983 92.5634 27.5875 92.2057 27.9658C91.8514 28.3407 91.6743 28.8033 91.6743 29.3537C91.6743 29.9005 91.8514 30.3631 92.2057 30.7415C92.5634 31.1164 92.9848 31.3038 93.4697 31.3038C93.7655 31.3038 94.0458 31.2333 94.3107 31.0923C94.5755 30.9513 94.7681 30.8103 94.8885 30.6692L95.0587 30.4629L95.585 30.9375C95.5643 30.965 95.5317 31.0046 95.487 31.0562C95.4457 31.1043 95.3563 31.1886 95.2187 31.309C95.0811 31.4259 94.9366 31.5308 94.7853 31.6237C94.634 31.7131 94.4379 31.7974 94.1972 31.8765C93.9598 31.9522 93.7174 31.99 93.4697 31.99C92.7784 31.99 92.1834 31.7338 91.6846 31.2213ZM98.172 32.6246L98.4351 31.8868L96.3715 26.8153H97.166L98.8066 30.9375L100.442 26.8153H101.237L98.9098 32.6246C98.7 33.1611 98.4747 33.5412 98.2339 33.7648C97.9932 33.9918 97.6905 34.1053 97.3259 34.1053C97.2124 34.1053 97.1023 34.0967 96.9957 34.0795C96.8925 34.0623 96.8151 34.0434 96.7636 34.0227L96.6913 34.0021V33.3108C96.8667 33.3795 97.0422 33.4157 97.2176 33.4191C97.6647 33.4191 97.9828 33.1543 98.172 32.6246Z" fill="black"/>
<path d="M12.7911 21.9996H2.03418V6.14611H5.43925V18.9483H12.7911V21.9996ZM20.8284 21.9996V20.8719C20.74 20.9751 20.6147 21.1041 20.4525 21.2589C20.2978 21.4063 19.955 21.6053 19.4244 21.8559C18.8937 22.0991 18.3409 22.2207 17.7661 22.2207C16.6605 22.2207 15.7614 21.9148 15.0685 21.3031C14.3757 20.684 14.0293 19.9359 14.0293 19.0589C14.0293 18.1523 14.3205 17.3969 14.9027 16.7925C15.485 16.1881 16.2883 15.7938 17.3128 15.6096L20.8284 14.9794C20.8284 14.5151 20.6589 14.1355 20.3199 13.8407C19.9808 13.5459 19.5091 13.3985 18.9048 13.3985C18.4036 13.3985 17.9466 13.4943 17.5339 13.6859C17.1212 13.8702 16.83 14.0618 16.6605 14.2608L16.4063 14.5261L14.7148 12.8347C14.759 12.7757 14.818 12.6983 14.8917 12.6025C14.9727 12.4993 15.1459 12.3261 15.4113 12.0829C15.684 11.8397 15.9788 11.6259 16.2957 11.4417C16.6126 11.25 17.029 11.0768 17.545 10.9221C18.0609 10.7599 18.5879 10.6788 19.1259 10.6788C20.5262 10.6788 21.6686 11.099 22.5531 11.9392C23.4375 12.772 23.8797 13.8223 23.8797 15.09V21.9996H20.8284ZM18.5621 19.7332C19.2549 19.7332 19.804 19.5158 20.2093 19.081C20.6221 18.6388 20.8284 18.027 20.8284 17.2458V16.903L18.3409 17.3563C17.5081 17.489 17.0917 17.9054 17.0917 18.6056C17.0917 19.3574 17.5818 19.7332 18.5621 19.7332ZM39.8548 5.81445C40.6876 5.81445 41.48 5.925 42.2317 6.14611C42.9835 6.35985 43.5989 6.62149 44.078 6.93105C44.5644 7.2406 44.9919 7.55015 45.3604 7.8597C45.7363 8.16925 46.0053 8.4309 46.1675 8.64464L46.4217 8.9763L44.2659 11.1321C44.2217 11.0732 44.1591 10.9921 44.078 10.8889C44.0043 10.7783 43.8311 10.5941 43.5584 10.3361C43.293 10.0782 43.0019 9.85336 42.685 9.66174C42.3681 9.46274 41.9517 9.28217 41.4357 9.12002C40.9198 8.9505 40.3928 8.86575 39.8548 8.86575C38.3734 8.86575 37.1352 9.36324 36.1402 10.3582C35.1452 11.3532 34.6477 12.5914 34.6477 14.0729C34.6477 15.5543 35.1452 16.7925 36.1402 17.7875C37.1352 18.7825 38.3734 19.28 39.8548 19.28C40.4297 19.28 40.9788 19.2026 41.5021 19.0478C42.0327 18.8857 42.4713 18.6977 42.8177 18.484C43.1641 18.2629 43.4699 18.0418 43.7353 17.8206C44.0006 17.5995 44.1922 17.4079 44.3101 17.2458L44.487 17.0136L46.5323 19.1694C46.4733 19.2579 46.3812 19.3758 46.2559 19.5232C46.138 19.6632 45.869 19.9175 45.4489 20.286C45.0361 20.6472 44.5902 20.9678 44.1111 21.2478C43.6394 21.5205 43.0167 21.7711 42.2428 21.9996C41.4763 22.2281 40.6803 22.3423 39.8548 22.3423C37.4374 22.3423 35.3958 21.5353 33.7301 19.9212C32.0718 18.2997 31.2426 16.3503 31.2426 14.0729C31.2426 11.7954 32.0718 9.84968 33.7301 8.23559C35.3958 6.62149 37.4374 5.81445 39.8548 5.81445ZM51.7394 6.14611V12.2598C51.8278 12.1418 51.9494 11.9981 52.1042 11.8286C52.2664 11.6517 52.6201 11.4159 53.1655 11.1211C53.7183 10.8263 54.2969 10.6788 54.9012 10.6788C56.1689 10.6788 57.2008 11.1174 57.9968 11.9944C58.8001 12.8715 59.2018 14.0544 59.2018 15.5432V21.9996H56.1505V15.886C56.1505 15.2079 55.9478 14.6625 55.5425 14.2497C55.1445 13.8296 54.6285 13.6196 53.9947 13.6196C53.3019 13.6196 52.7528 13.8481 52.3474 14.305C51.9421 14.7546 51.7394 15.3958 51.7394 16.2287V21.9996H48.677V6.14611H51.7394ZM68.2562 21.9996V20.8719C68.1678 20.9751 68.0425 21.1041 67.8803 21.2589C67.7255 21.4063 67.3828 21.6053 66.8522 21.8559C66.3215 22.0991 65.7687 22.2207 65.1938 22.2207C64.0883 22.2207 63.1891 21.9148 62.4963 21.3031C61.8035 20.684 61.4571 19.9359 61.4571 19.0589C61.4571 18.1523 61.7482 17.3969 62.3305 16.7925C62.9127 16.1881 63.7161 15.7938 64.7406 15.6096L68.2562 14.9794C68.2562 14.5151 68.0867 14.1355 67.7476 13.8407C67.4086 13.5459 66.9369 13.3985 66.3325 13.3985C65.8314 13.3985 65.3744 13.4943 64.9617 13.6859C64.5489 13.8702 64.2578 14.0618 64.0883 14.2608L63.834 14.5261L62.1425 12.8347C62.1868 12.7757 62.2457 12.6983 62.3194 12.6025C62.4005 12.4993 62.5737 12.3261 62.839 12.0829C63.1117 11.8397 63.4065 11.6259 63.7235 11.4417C64.0404 11.25 64.4568 11.0768 64.9727 10.9221C65.4887 10.7599 66.0156 10.6788 66.5537 10.6788C67.954 10.6788 69.0964 11.099 69.9808 11.9392C70.8653 12.772 71.3075 13.8223 71.3075 15.09V21.9996H68.2562ZM65.9898 19.7332C66.6826 19.7332 67.2317 19.5158 67.6371 19.081C68.0498 18.6388 68.2562 18.027 68.2562 17.2458V16.903L65.7687 17.3563C64.9359 17.489 64.5195 17.9054 64.5195 18.6056C64.5195 19.3574 65.0096 19.7332 65.9898 19.7332ZM75.6191 9.66174V7.62754H78.3387V11.1321H80.594V13.8518H78.3387V18.2629C78.3387 18.6093 78.464 18.9041 78.7146 19.1473C78.9726 19.3905 79.2969 19.5121 79.6875 19.5121C79.8865 19.5121 80.0781 19.4937 80.2624 19.4569C80.454 19.4126 80.5977 19.3684 80.6935 19.3242L80.8262 19.28V21.889C80.2218 22.1175 79.5401 22.2281 78.781 22.2207C76.4446 22.2207 75.2764 20.9383 75.2764 18.3734V13.8518H73.3527V11.1321H74.3698C74.7162 11.1321 75.0111 10.9958 75.2543 10.7231C75.4975 10.4504 75.6191 10.0966 75.6191 9.66174ZM84.7951 9.66174V7.62754H87.5147V11.1321H89.77V13.8518H87.5147V18.2629C87.5147 18.6093 87.64 18.9041 87.8906 19.1473C88.1486 19.3905 88.4729 19.5121 88.8635 19.5121C89.0625 19.5121 89.2541 19.4937 89.4384 19.4569C89.63 19.4126 89.7737 19.3684 89.8695 19.3242L90.0022 19.28V21.889C89.3978 22.1175 88.7161 22.2281 87.957 22.2207C85.6206 22.2207 84.4524 20.9383 84.4524 18.3734V13.8518H82.5287V11.1321H83.5458C83.8922 11.1321 84.1871 10.9958 84.4303 10.7231C84.6735 10.4504 84.7951 10.0966 84.7951 9.66174ZM102.672 17.4669H94.6344C94.7524 18.0712 95.073 18.5835 95.5963 19.0036C96.1195 19.4163 96.7792 19.6227 97.5752 19.6227C98.1501 19.6227 98.6807 19.5121 99.1672 19.291C99.661 19.0625 100.007 18.8341 100.206 18.6056L100.527 18.2629L102.108 20.2971L101.909 20.4961C101.813 20.5919 101.614 20.7503 101.312 20.9714C101.01 21.1926 100.689 21.3916 100.35 21.5684C100.011 21.738 99.5688 21.889 99.0234 22.0217C98.4854 22.1544 97.929 22.2207 97.3541 22.2207C95.7252 22.2207 94.3359 21.6569 93.1862 20.5292C92.0364 19.3942 91.4615 18.0344 91.4615 16.4498C91.4615 14.8652 92.029 13.509 93.1641 12.3814C94.2991 11.2464 95.6589 10.6788 97.2435 10.6788C98.8281 10.6788 100.147 11.2095 101.201 12.2708C102.255 13.3248 102.782 14.6441 102.782 16.2287L102.672 17.4669ZM98.8797 13.8628C98.4375 13.4796 97.8921 13.2879 97.2435 13.2879C96.5949 13.2879 96.0422 13.4759 95.5852 13.8518C95.1356 14.2276 94.8187 14.7178 94.6344 15.3221H99.731C99.6131 14.7325 99.3293 14.2461 98.8797 13.8628Z" fill="black"/>
</svg>
