<svg width="24" height="24" viewBox="0 0 24 24" fill="none" xmlns="http://www.w3.org/2000/svg">
<path fill-rule="evenodd" clip-rule="evenodd" d="M9.11766 4.28633C11.0456 4.23789 12.9544 4.23789 14.8823 4.28633C16.479 4.32645 17.5947 4.35638 18.4559 4.50637C19.2835 4.65049 19.7994 4.89411 20.2237 5.31998C20.3969 5.49388 20.5394 5.68102 20.6568 5.89566L14.7178 9.26072C13.4625 9.97198 12.7008 10.2463 12.0006 10.2463C11.3004 10.2463 10.5386 9.97198 9.28334 9.26072L3.34348 5.89515C3.46085 5.68071 3.60319 5.49373 3.77629 5.31997C4.20055 4.89409 4.71652 4.65048 5.54405 4.50636C6.40529 4.35637 7.52099 4.32644 9.11766 4.28633ZM2.9215 7.38011C2.81762 8.17251 2.79472 9.17433 2.76559 10.5404C2.7448 11.5154 2.7448 12.4846 2.7656 13.4596C2.79877 15.0152 2.82385 16.0984 2.96964 16.938C3.10923 17.7418 3.34907 18.2512 3.77629 18.68C4.20056 19.1059 4.71653 19.3495 5.54406 19.4936C6.4053 19.6436 7.521 19.6736 9.11767 19.7137C11.0456 19.7621 12.9544 19.7621 14.8823 19.7137C16.479 19.6736 17.5947 19.6436 18.4559 19.4936C19.2835 19.3495 19.7994 19.1059 20.2237 18.68C20.6509 18.2512 20.8908 17.7418 21.0304 16.938C21.1762 16.0984 21.2012 15.0152 21.2344 13.4596C21.2552 12.4846 21.2552 11.5154 21.2344 10.5404C21.2053 9.17469 21.1824 8.17303 21.0786 7.38073L15.4573 10.5658C14.164 11.2986 13.1131 11.7463 12.0006 11.7463C10.8881 11.7463 9.83716 11.2986 8.54388 10.5658L2.9215 7.38011ZM14.92 2.78681C12.967 2.73773 11.033 2.73773 9.07999 2.7868L9.02182 2.78826C7.497 2.82655 6.27002 2.85735 5.2867 3.0286C4.2572 3.20789 3.42048 3.55177 2.71362 4.26132C2.00971 4.9679 1.66764 5.7926 1.49176 6.8054C1.32429 7.76978 1.29878 8.9668 1.26719 10.4496L1.26719 10.4497L1.26593 10.5084C1.24469 11.5047 1.24469 12.4953 1.26594 13.4916L1.26719 13.5504C1.29879 15.0332 1.32429 16.2302 1.49176 17.1946C1.66764 18.2074 2.00972 19.0321 2.71362 19.7387C3.42048 20.4482 4.2572 20.7921 5.2867 20.9714C6.27001 21.1426 7.49697 21.1735 9.02177 21.2117L9.07999 21.2132C11.033 21.2623 12.967 21.2623 14.92 21.2132L14.9782 21.2117C16.503 21.1735 17.73 21.1426 18.7133 20.9714C19.7428 20.7921 20.5795 20.4482 21.2864 19.7387C21.9903 19.0321 22.3324 18.2074 22.5082 17.1946C22.6757 16.2302 22.7012 15.0332 22.7328 13.5503L22.7341 13.4916C22.7553 12.4953 22.7553 11.5047 22.7341 10.5084L22.7328 10.4497C22.7012 8.96683 22.6757 7.76979 22.5082 6.80542C22.3324 5.79261 21.9903 4.96792 21.2864 4.26134C20.5795 3.55179 19.7428 3.20791 18.7133 3.02862C17.73 2.85737 16.503 2.82656 14.9782 2.78827L14.92 2.78681Z" fill="#141B34"/>
</svg>
