<svg width="271" height="271" viewBox="0 0 271 271" fill="none" xmlns="http://www.w3.org/2000/svg">
<g filter="url(#filter0_dd_4_48)">
<circle cx="135.5" cy="119.5" r="92.5" fill="white"/>
<circle cx="135.5" cy="119.5" r="89.5" stroke="#FFC60A" stroke-width="6"/>
</g>
<path d="M113.764 94H110.292L108.92 90.052H100.576L99.2045 94H95.7045L102.816 74.4H106.68L113.764 94ZM104.748 78.18L101.64 87.028H107.856L104.748 78.18ZM121.668 86.86L128.052 94H124.44L118.7 87.532V94H115.676V80H118.7V86.188L124.132 80H127.828L121.668 86.86ZM142.126 80V91.144H144.422V97.752H141.454V94H130.086V80H133.11V91.144H139.102V80H142.126ZM149.843 88.876L157.011 80H159.335V94H156.367V85.096L149.199 94H146.875V80H149.843V88.876ZM167.436 80H173.68V94H170.712V89.296H169.032L165.476 94H161.92L165.7 89.016C164.729 88.6987 163.945 88.1387 163.348 87.336C162.769 86.5333 162.48 85.6373 162.48 84.648C162.48 83.36 162.937 82.268 163.852 81.372C164.767 80.4573 165.961 80 167.436 80ZM167.604 86.692H170.712V82.744H167.604C166.969 82.744 166.447 82.9307 166.036 83.304C165.644 83.6587 165.448 84.1347 165.448 84.732C165.448 85.3293 165.644 85.8053 166.036 86.16C166.447 86.5147 166.969 86.692 167.604 86.692Z" fill="#FF0000"/>
<path d="M64.0707 119.932C65.1347 120.389 65.6667 121.187 65.6667 122.326C65.6667 123.166 65.3494 123.852 64.7147 124.384C64.0894 124.916 63.2587 125.182 62.2227 125.182C61.3081 125.182 60.5567 124.981 59.9687 124.58C59.3901 124.179 58.9794 123.628 58.7367 122.928L59.8427 122.298C60.1321 123.399 60.9254 123.95 62.2227 123.95C62.8947 123.95 63.4174 123.801 63.7907 123.502C64.1734 123.203 64.3647 122.797 64.3647 122.284C64.3647 121.771 64.1874 121.365 63.8327 121.066C63.4781 120.758 62.9927 120.604 62.3767 120.604H61.2287V119.414H62.0547C62.6427 119.414 63.1141 119.269 63.4687 118.98C63.8327 118.681 64.0147 118.294 64.0147 117.818C64.0147 117.342 63.8467 116.959 63.5107 116.67C63.1747 116.381 62.7174 116.236 62.1387 116.236C61.0561 116.236 60.3327 116.717 59.9687 117.678L58.8767 117.048C59.4647 115.695 60.5521 115.018 62.1387 115.018C63.0814 115.018 63.8421 115.279 64.4207 115.802C65.0087 116.315 65.3027 116.978 65.3027 117.79C65.3027 118.733 64.8921 119.447 64.0707 119.932ZM72.8831 119.204V118H74.1011V125H72.8831V123.796C72.2858 124.72 71.4038 125.182 70.2371 125.182C69.2478 125.182 68.4124 124.827 67.7311 124.118C67.0404 123.399 66.6951 122.527 66.6951 121.5C66.6951 120.483 67.0404 119.615 67.7311 118.896C68.4218 118.177 69.2571 117.818 70.2371 117.818C71.4038 117.818 72.2858 118.28 72.8831 119.204ZM70.3911 124.006C71.1004 124.006 71.6931 123.768 72.1691 123.292C72.6451 122.797 72.8831 122.2 72.8831 121.5C72.8831 120.791 72.6451 120.198 72.1691 119.722C71.6931 119.237 71.1004 118.994 70.3911 118.994C69.6911 118.994 69.1031 119.237 68.6271 119.722C68.1511 120.198 67.9131 120.791 67.9131 121.5C67.9131 122.2 68.1511 122.797 68.6271 123.292C69.1031 123.768 69.6911 124.006 70.3911 124.006ZM78.4105 121.388L81.8685 125H80.3565L77.1645 121.682V125H75.9465V118H77.1645V121.094L80.1885 118H81.7565L78.4105 121.388ZM88.1546 119.204V118H89.3726V125H88.1546V123.796C87.5572 124.72 86.6752 125.182 85.5086 125.182C84.5192 125.182 83.6839 124.827 83.0026 124.118C82.3119 123.399 81.9666 122.527 81.9666 121.5C81.9666 120.483 82.3119 119.615 83.0026 118.896C83.6932 118.177 84.5286 117.818 85.5086 117.818C86.6752 117.818 87.5572 118.28 88.1546 119.204ZM85.6626 124.006C86.3719 124.006 86.9646 123.768 87.4406 123.292C87.9166 122.797 88.1546 122.2 88.1546 121.5C88.1546 120.791 87.9166 120.198 87.4406 119.722C86.9646 119.237 86.3719 118.994 85.6626 118.994C84.9626 118.994 84.3746 119.237 83.8986 119.722C83.4226 120.198 83.1846 120.791 83.1846 121.5C83.1846 122.2 83.4226 122.797 83.8986 123.292C84.3746 123.768 84.9626 124.006 85.6626 124.006ZM96.8879 121.388L99.8279 125H98.3999L95.7819 121.682V125H94.5779V121.682L91.9599 125H90.5459L93.4719 121.388L90.6859 118H92.0999L94.5779 121.094V118H95.7819V121.094L98.2599 118H99.6879L96.8879 121.388ZM102.197 122.914L106.075 118H107.055V125H105.851V120.086L101.973 125H100.993V118H102.197V122.914ZM108.125 118H114.117V119.176H111.737V125H110.519V119.176H108.125V118ZM121.631 122.06H115.765C115.887 122.676 116.171 123.161 116.619 123.516C117.067 123.861 117.627 124.034 118.299 124.034C119.223 124.034 119.895 123.693 120.315 123.012L121.351 123.6C120.661 124.655 119.634 125.182 118.271 125.182C117.17 125.182 116.265 124.837 115.555 124.146C114.865 123.437 114.519 122.555 114.519 121.5C114.519 120.436 114.86 119.559 115.541 118.868C116.223 118.168 117.105 117.818 118.187 117.818C119.214 117.818 120.049 118.182 120.693 118.91C121.347 119.619 121.673 120.487 121.673 121.514C121.673 121.691 121.659 121.873 121.631 122.06ZM118.187 118.966C117.543 118.966 117.002 119.148 116.563 119.512C116.134 119.876 115.868 120.371 115.765 120.996H120.441C120.339 120.352 120.082 119.853 119.671 119.498C119.261 119.143 118.766 118.966 118.187 118.966ZM129.751 125.182C128.715 125.182 127.861 124.841 127.189 124.16C126.517 123.469 126.181 122.592 126.181 121.528C126.181 120.324 126.354 119.405 126.699 118.77C127.054 118.126 127.773 117.543 128.855 117.02C128.911 116.992 128.977 116.959 129.051 116.922C129.135 116.885 129.233 116.843 129.345 116.796C129.467 116.74 129.569 116.693 129.653 116.656L130.409 116.32C131.156 115.947 131.553 115.499 131.599 114.976L132.579 115.536C132.514 115.863 132.407 116.124 132.257 116.32C132.248 116.339 132.22 116.381 132.173 116.446C132.127 116.502 132.094 116.544 132.075 116.572C132.057 116.591 132.024 116.623 131.977 116.67C131.94 116.707 131.898 116.745 131.851 116.782C131.814 116.819 131.763 116.857 131.697 116.894C131.352 117.109 131.105 117.249 130.955 117.314C130.899 117.342 130.839 117.37 130.773 117.398C130.717 117.426 130.671 117.449 130.633 117.468C130.596 117.487 130.568 117.501 130.549 117.51L130.087 117.706L129.639 117.888C129.014 118.159 128.552 118.434 128.253 118.714C127.955 118.994 127.74 119.349 127.609 119.778C127.899 119.423 128.263 119.153 128.701 118.966C129.149 118.779 129.607 118.686 130.073 118.686C130.96 118.686 131.702 118.985 132.299 119.582C132.915 120.189 133.223 120.959 133.223 121.892C133.223 122.844 132.897 123.633 132.243 124.258C131.581 124.874 130.75 125.182 129.751 125.182ZM132.005 121.892C132.005 121.267 131.8 120.758 131.389 120.366C130.988 119.965 130.456 119.764 129.793 119.764C129.205 119.764 128.664 119.955 128.169 120.338C127.693 120.721 127.455 121.215 127.455 121.822C127.455 122.457 127.675 122.979 128.113 123.39C128.552 123.801 129.098 124.006 129.751 124.006C130.414 124.006 130.951 123.805 131.361 123.404C131.791 123.003 132.005 122.499 132.005 121.892ZM140.313 119.204V118H141.531V125H140.313V123.796C139.715 124.72 138.833 125.182 137.667 125.182C136.677 125.182 135.842 124.827 135.161 124.118C134.47 123.399 134.125 122.527 134.125 121.5C134.125 120.483 134.47 119.615 135.161 118.896C135.851 118.177 136.687 117.818 137.667 117.818C138.833 117.818 139.715 118.28 140.313 119.204ZM137.821 124.006C138.53 124.006 139.123 123.768 139.599 123.292C140.075 122.797 140.313 122.2 140.313 121.5C140.313 120.791 140.075 120.198 139.599 119.722C139.123 119.237 138.53 118.994 137.821 118.994C137.121 118.994 136.533 119.237 136.057 119.722C135.581 120.198 135.343 120.791 135.343 121.5C135.343 122.2 135.581 122.797 136.057 123.292C136.533 123.768 137.121 124.006 137.821 124.006ZM148.22 120.912V118H149.438V125H148.22V122.074H144.594V125H143.376V118H144.594V120.912H148.22ZM157.41 117.818C158.437 117.818 159.305 118.173 160.014 118.882C160.733 119.601 161.092 120.473 161.092 121.5C161.092 122.527 160.733 123.399 160.014 124.118C159.305 124.827 158.437 125.182 157.41 125.182C156.486 125.182 155.688 124.888 155.016 124.3C154.335 123.712 153.933 122.97 153.812 122.074H152.51V125H151.292V118H152.51V120.912H153.812C153.943 120.016 154.344 119.279 155.016 118.7C155.707 118.112 156.505 117.818 157.41 117.818ZM157.41 123.992C158.101 123.992 158.684 123.754 159.16 123.278C159.636 122.802 159.874 122.209 159.874 121.5C159.874 120.791 159.636 120.198 159.16 119.722C158.684 119.246 158.101 119.008 157.41 119.008C156.71 119.008 156.122 119.246 155.646 119.722C155.17 120.198 154.932 120.791 154.932 121.5C154.932 122.209 155.17 122.802 155.646 123.278C156.122 123.754 156.71 123.992 157.41 123.992ZM169.334 125.182C168.279 125.182 167.402 124.832 166.702 124.132C166.002 123.423 165.652 122.545 165.652 121.5C165.652 120.455 166.002 119.582 166.702 118.882C167.402 118.173 168.279 117.818 169.334 117.818C170.025 117.818 170.645 117.986 171.196 118.322C171.747 118.649 172.157 119.092 172.428 119.652L171.406 120.24C171.229 119.867 170.953 119.568 170.58 119.344C170.216 119.12 169.801 119.008 169.334 119.008C168.634 119.008 168.046 119.246 167.57 119.722C167.103 120.207 166.87 120.8 166.87 121.5C166.87 122.191 167.103 122.779 167.57 123.264C168.046 123.74 168.634 123.978 169.334 123.978C169.801 123.978 170.221 123.871 170.594 123.656C170.967 123.432 171.252 123.133 171.448 122.76L172.484 123.362C172.176 123.922 171.742 124.365 171.182 124.692C170.622 125.019 170.006 125.182 169.334 125.182ZM180.311 122.06H174.445C174.566 122.676 174.851 123.161 175.299 123.516C175.747 123.861 176.307 124.034 176.979 124.034C177.903 124.034 178.575 123.693 178.995 123.012L180.031 123.6C179.34 124.655 178.314 125.182 176.951 125.182C175.85 125.182 174.944 124.837 174.235 124.146C173.544 123.437 173.199 122.555 173.199 121.5C173.199 120.436 173.54 119.559 174.221 118.868C174.902 118.168 175.784 117.818 176.867 117.818C177.894 117.818 178.729 118.182 179.373 118.91C180.026 119.619 180.353 120.487 180.353 121.514C180.353 121.691 180.339 121.873 180.311 122.06ZM176.867 118.966C176.223 118.966 175.682 119.148 175.243 119.512C174.814 119.876 174.548 120.371 174.445 120.996H179.121C179.018 120.352 178.762 119.853 178.351 119.498C177.94 119.143 177.446 118.966 176.867 118.966ZM186.681 116.95H182.901V115.886H186.681V116.95ZM182.957 122.914L186.835 118H187.815V125H186.611V120.086L182.733 125H181.753V118H182.957V122.914ZM194.079 121.346V118H195.297V125H194.079V122.48C193.51 122.723 192.88 122.844 192.189 122.844C191.284 122.844 190.588 122.629 190.103 122.2C189.618 121.771 189.375 121.145 189.375 120.324V118H190.593V120.254C190.593 120.767 190.728 121.141 190.999 121.374C191.279 121.598 191.704 121.71 192.273 121.71C192.917 121.71 193.519 121.589 194.079 121.346ZM202.944 119.204V118H204.162V125H202.944V123.796C202.346 124.72 201.464 125.182 200.298 125.182C199.308 125.182 198.473 124.827 197.792 124.118C197.101 123.399 196.756 122.527 196.756 121.5C196.756 120.483 197.101 119.615 197.792 118.896C198.482 118.177 199.318 117.818 200.298 117.818C201.464 117.818 202.346 118.28 202.944 119.204ZM200.452 124.006C201.161 124.006 201.754 123.768 202.23 123.292C202.706 122.797 202.944 122.2 202.944 121.5C202.944 120.791 202.706 120.198 202.23 119.722C201.754 119.237 201.161 118.994 200.452 118.994C199.752 118.994 199.164 119.237 198.688 119.722C198.212 120.198 197.974 120.791 197.974 121.5C197.974 122.2 198.212 122.797 198.688 123.292C199.164 123.768 199.752 124.006 200.452 124.006ZM209.297 125.182C208.242 125.182 207.365 124.832 206.665 124.132C205.965 123.423 205.615 122.545 205.615 121.5C205.615 120.455 205.965 119.582 206.665 118.882C207.365 118.173 208.242 117.818 209.297 117.818C209.988 117.818 210.608 117.986 211.159 118.322C211.71 118.649 212.12 119.092 212.391 119.652L211.369 120.24C211.192 119.867 210.916 119.568 210.543 119.344C210.179 119.12 209.764 119.008 209.297 119.008C208.597 119.008 208.009 119.246 207.533 119.722C207.066 120.207 206.833 120.8 206.833 121.5C206.833 122.191 207.066 122.779 207.533 123.264C208.009 123.74 208.597 123.978 209.297 123.978C209.764 123.978 210.184 123.871 210.557 123.656C210.93 123.432 211.215 123.133 211.411 122.76L212.447 123.362C212.139 123.922 211.705 124.365 211.145 124.692C210.585 125.019 209.969 125.182 209.297 125.182ZM66.5137 142.914L70.3917 138H71.3717V145H70.1677V140.086L66.2897 145H65.3097V138H66.5137V142.914ZM76.7258 138H82.7878V145H81.5698V139.162H77.9438V145H76.7258V138ZM90.5498 144.118C89.8404 144.827 88.9678 145.182 87.9318 145.182C86.8958 145.182 86.0231 144.827 85.3138 144.118C84.6044 143.409 84.2498 142.536 84.2498 141.5C84.2498 140.464 84.6044 139.591 85.3138 138.882C86.0231 138.173 86.8958 137.818 87.9318 137.818C88.9678 137.818 89.8404 138.173 90.5498 138.882C91.2684 139.601 91.6278 140.473 91.6278 141.5C91.6278 142.527 91.2684 143.399 90.5498 144.118ZM87.9318 143.992C88.6318 143.992 89.2198 143.754 89.6958 143.278C90.1718 142.802 90.4098 142.209 90.4098 141.5C90.4098 140.791 90.1718 140.198 89.6958 139.722C89.2198 139.246 88.6318 139.008 87.9318 139.008C87.2411 139.008 86.6578 139.246 86.1818 139.722C85.7058 140.198 85.4678 140.791 85.4678 141.5C85.4678 142.209 85.7058 142.802 86.1818 143.278C86.6578 143.754 87.2411 143.992 87.9318 143.992ZM93.4616 138H98.6556V145H97.4376V139.176H94.6796V142.032C94.6796 143.152 94.4556 143.95 94.0076 144.426C93.5596 144.893 92.9016 145.084 92.0336 145V143.852C92.5189 143.917 92.8782 143.81 93.1116 143.53C93.3449 143.241 93.4616 142.732 93.4616 142.004V138ZM103.371 143.488L105.387 138H106.689L103.833 145.434C103.534 146.227 103.114 146.829 102.573 147.24C102.032 147.66 101.416 147.847 100.725 147.8V146.666C101.574 146.731 102.204 146.265 102.615 145.266L102.727 145.014L99.6891 138H100.977L103.371 143.488ZM112.116 141.346V138H113.334V145H112.116V142.48C111.547 142.723 110.917 142.844 110.226 142.844C109.321 142.844 108.626 142.629 108.14 142.2C107.655 141.771 107.412 141.145 107.412 140.324V138H108.63V140.254C108.63 140.767 108.766 141.141 109.036 141.374C109.316 141.598 109.741 141.71 110.31 141.71C110.954 141.71 111.556 141.589 112.116 141.346ZM116.389 142.914L120.267 138H121.247V145H120.043V140.086L116.165 145H115.185V138H116.389V142.914ZM122.317 138H128.309V139.176H125.929V145H124.711V139.176H122.317V138ZM135.823 142.06H129.957C130.078 142.676 130.363 143.161 130.811 143.516C131.259 143.861 131.819 144.034 132.491 144.034C133.415 144.034 134.087 143.693 134.507 143.012L135.543 143.6C134.852 144.655 133.825 145.182 132.463 145.182C131.361 145.182 130.456 144.837 129.747 144.146C129.056 143.437 128.711 142.555 128.711 141.5C128.711 140.436 129.051 139.559 129.733 138.868C130.414 138.168 131.296 137.818 132.379 137.818C133.405 137.818 134.241 138.182 134.885 138.91C135.538 139.619 135.865 140.487 135.865 141.514C135.865 141.691 135.851 141.873 135.823 142.06ZM132.379 138.966C131.735 138.966 131.193 139.148 130.755 139.512C130.325 139.876 130.059 140.371 129.957 140.996H134.633C134.53 140.352 134.273 139.853 133.863 139.498C133.452 139.143 132.957 138.966 132.379 138.966Z" fill="black"/>
<path d="M143.635 143.488L145.651 138H146.953L144.097 145.434C143.798 146.227 143.378 146.829 142.837 147.24C142.295 147.66 141.679 147.847 140.989 147.8V146.666C141.838 146.731 142.468 146.265 142.879 145.266L142.991 145.014L139.953 138H141.241L143.635 143.488ZM150.986 145.182C149.932 145.182 149.054 144.832 148.354 144.132C147.654 143.423 147.304 142.545 147.304 141.5C147.304 140.455 147.654 139.582 148.354 138.882C149.054 138.173 149.932 137.818 150.986 137.818C151.677 137.818 152.298 137.986 152.848 138.322C153.399 138.649 153.81 139.092 154.08 139.652L153.058 140.24C152.881 139.867 152.606 139.568 152.232 139.344C151.868 139.12 151.453 139.008 150.986 139.008C150.286 139.008 149.698 139.246 149.222 139.722C148.756 140.207 148.522 140.8 148.522 141.5C148.522 142.191 148.756 142.779 149.222 143.264C149.698 143.74 150.286 143.978 150.986 143.978C151.453 143.978 151.873 143.871 152.246 143.656C152.62 143.432 152.904 143.133 153.1 142.76L154.136 143.362C153.828 143.922 153.394 144.365 152.834 144.692C152.274 145.019 151.658 145.182 150.986 145.182ZM154.446 138H160.438V139.176H158.058V145H156.84V139.176H154.446V138ZM167.028 139.204V138H168.246V145H167.028V143.796C166.43 144.72 165.548 145.182 164.382 145.182C163.392 145.182 162.557 144.827 161.876 144.118C161.185 143.399 160.84 142.527 160.84 141.5C160.84 140.483 161.185 139.615 161.876 138.896C162.566 138.177 163.402 137.818 164.382 137.818C165.548 137.818 166.43 138.28 167.028 139.204ZM164.536 144.006C165.245 144.006 165.838 143.768 166.314 143.292C166.79 142.797 167.028 142.2 167.028 141.5C167.028 140.791 166.79 140.198 166.314 139.722C165.838 139.237 165.245 138.994 164.536 138.994C163.836 138.994 163.248 139.237 162.772 139.722C162.296 140.198 162.058 140.791 162.058 141.5C162.058 142.2 162.296 142.797 162.772 143.292C163.248 143.768 163.836 144.006 164.536 144.006ZM174.935 140.912V138H176.153V145H174.935V142.074H171.309V145H170.091V138H171.309V140.912H174.935ZM183.915 144.118C183.206 144.827 182.333 145.182 181.297 145.182C180.261 145.182 179.388 144.827 178.679 144.118C177.97 143.409 177.615 142.536 177.615 141.5C177.615 140.464 177.97 139.591 178.679 138.882C179.388 138.173 180.261 137.818 181.297 137.818C182.333 137.818 183.206 138.173 183.915 138.882C184.634 139.601 184.993 140.473 184.993 141.5C184.993 142.527 184.634 143.399 183.915 144.118ZM181.297 143.992C181.997 143.992 182.585 143.754 183.061 143.278C183.537 142.802 183.775 142.209 183.775 141.5C183.775 140.791 183.537 140.198 183.061 139.722C182.585 139.246 181.997 139.008 181.297 139.008C180.606 139.008 180.023 139.246 179.547 139.722C179.071 140.198 178.833 140.791 178.833 141.5C178.833 142.209 179.071 142.802 179.547 143.278C180.023 143.754 180.606 143.992 181.297 143.992ZM191.091 141.402C191.81 141.701 192.169 142.242 192.169 143.026C192.169 143.623 191.973 144.104 191.581 144.468C191.189 144.823 190.638 145 189.929 145H186.429V138H189.649C190.34 138 190.876 138.173 191.259 138.518C191.651 138.863 191.847 139.325 191.847 139.904C191.847 140.576 191.595 141.075 191.091 141.402ZM189.593 139.092H187.619V140.926H189.593C190.302 140.926 190.657 140.613 190.657 139.988C190.657 139.391 190.302 139.092 189.593 139.092ZM187.619 143.894H189.859C190.214 143.894 190.484 143.81 190.671 143.642C190.867 143.474 190.965 143.236 190.965 142.928C190.965 142.639 190.867 142.415 190.671 142.256C190.484 142.088 190.214 142.004 189.859 142.004H187.619V143.894ZM195.948 141.388L199.406 145H197.894L194.702 141.682V145H193.484V138H194.702V141.094L197.726 138H199.294L195.948 141.388ZM203.203 143.488L205.219 138H206.521L203.665 145.434C203.367 146.227 202.947 146.829 202.405 147.24C201.864 147.66 201.248 147.847 200.557 147.8V146.666C201.407 146.731 202.037 146.265 202.447 145.266L202.559 145.014L199.521 138H200.809L203.203 143.488ZM102.861 159.918C103.72 160.413 104.149 161.159 104.149 162.158C104.149 162.989 103.855 163.67 103.267 164.202C102.679 164.734 101.956 165 101.097 165H96.9393V155.2H100.803C101.634 155.2 102.339 155.461 102.917 155.984C103.496 156.507 103.785 157.165 103.785 157.958C103.785 158.77 103.477 159.423 102.861 159.918ZM100.803 157.006H98.8713V159.162H100.803C101.102 159.162 101.349 159.059 101.545 158.854C101.751 158.649 101.853 158.392 101.853 158.084C101.853 157.776 101.755 157.519 101.559 157.314C101.363 157.109 101.111 157.006 100.803 157.006ZM98.8713 163.194H101.097C101.424 163.194 101.695 163.087 101.909 162.872C102.124 162.648 102.231 162.368 102.231 162.032C102.231 161.705 102.124 161.435 101.909 161.22C101.695 160.996 101.424 160.884 101.097 160.884H98.8713V163.194ZM108.916 155.2H116.238V165H114.306V157.048H110.848V165H108.916V155.2ZM126.308 163.726C125.319 164.706 124.115 165.196 122.696 165.196C121.278 165.196 120.074 164.706 119.084 163.726C118.104 162.727 117.614 161.519 117.614 160.1C117.614 158.672 118.104 157.468 119.084 156.488C120.074 155.499 121.278 155.004 122.696 155.004C124.115 155.004 125.319 155.499 126.308 156.488C127.298 157.468 127.792 158.672 127.792 160.1C127.792 161.528 127.298 162.737 126.308 163.726ZM120.442 162.41C121.04 163.007 121.791 163.306 122.696 163.306C123.602 163.306 124.353 163.007 124.95 162.41C125.557 161.803 125.86 161.033 125.86 160.1C125.86 159.167 125.557 158.397 124.95 157.79C124.344 157.183 123.592 156.88 122.696 156.88C121.8 156.88 121.049 157.183 120.442 157.79C119.836 158.397 119.532 159.167 119.532 160.1C119.532 161.033 119.836 161.803 120.442 162.41ZM136.245 155.2V163.152H137.295V166.876H135.363V165H129.945V166.876H128.013V163.152H128.965C129.506 162.405 129.777 161.299 129.777 159.834V155.2H136.245ZM131.037 163.152H134.313V157.006H131.709V159.862C131.709 161.29 131.485 162.387 131.037 163.152ZM147.039 165H144.939L144.351 163.236H140.445L139.857 165H137.771L141.201 155.2H143.595L147.039 165ZM142.405 157.426L141.061 161.43H143.749L142.405 157.426ZM147.99 155.2H151.644C152.577 155.2 153.371 155.517 154.024 156.152C154.668 156.787 154.99 157.566 154.99 158.49C154.99 159.414 154.668 160.193 154.024 160.828C153.371 161.463 152.577 161.78 151.644 161.78H149.922V165H147.99V155.2ZM149.922 159.974H151.644C152.055 159.974 152.395 159.834 152.666 159.554C152.937 159.265 153.072 158.91 153.072 158.49C153.072 158.061 152.937 157.706 152.666 157.426C152.395 157.146 152.055 157.006 151.644 157.006H149.922V159.974ZM164.426 163.726C163.436 164.706 162.232 165.196 160.814 165.196C159.395 165.196 158.191 164.706 157.202 163.726C156.222 162.727 155.732 161.519 155.732 160.1C155.732 158.672 156.222 157.468 157.202 156.488C158.191 155.499 159.395 155.004 160.814 155.004C162.232 155.004 163.436 155.499 164.426 156.488C165.415 157.468 165.91 158.672 165.91 160.1C165.91 161.528 165.415 162.737 164.426 163.726ZM158.56 162.41C159.157 163.007 159.908 163.306 160.814 163.306C161.719 163.306 162.47 163.007 163.068 162.41C163.674 161.803 163.978 161.033 163.978 160.1C163.978 159.167 163.674 158.397 163.068 157.79C162.461 157.183 161.71 156.88 160.814 156.88C159.918 156.88 159.166 157.183 158.56 157.79C157.953 158.397 157.65 159.167 157.65 160.1C157.65 161.033 157.953 161.803 158.56 162.41ZM171.159 159.96L174.925 165H172.699L169.199 160.408V165H167.267V155.2H169.199V159.526L172.559 155.2H174.785L171.159 159.96Z" fill="#FFC60A"/>
<defs>
<filter id="filter0_dd_4_48" x="0.200001" y="0.200001" width="270.6" height="270.6" filterUnits="userSpaceOnUse" color-interpolation-filters="sRGB">
<feFlood flood-opacity="0" result="BackgroundImageFix"/>
<feColorMatrix in="SourceAlpha" type="matrix" values="0 0 0 0 0 0 0 0 0 0 0 0 0 0 0 0 0 0 127 0" result="hardAlpha"/>
<feMorphology radius="5" operator="dilate" in="SourceAlpha" result="effect1_dropShadow_4_48"/>
<feOffset dy="16"/>
<feGaussianBlur stdDeviation="18.9"/>
<feComposite in2="hardAlpha" operator="out"/>
<feColorMatrix type="matrix" values="0 0 0 0 1 0 0 0 0 0.787083 0 0 0 0 0.0875 0 0 0 0.6 0"/>
<feBlend mode="normal" in2="BackgroundImageFix" result="effect1_dropShadow_4_48"/>
<feColorMatrix in="SourceAlpha" type="matrix" values="0 0 0 0 0 0 0 0 0 0 0 0 0 0 0 0 0 0 127 0" result="hardAlpha"/>
<feOffset dy="4"/>
<feGaussianBlur stdDeviation="2"/>
<feComposite in2="hardAlpha" operator="out"/>
<feColorMatrix type="matrix" values="0 0 0 0 0 0 0 0 0 0 0 0 0 0 0 0 0 0 0.25 0"/>
<feBlend mode="normal" in2="effect1_dropShadow_4_48" result="effect2_dropShadow_4_48"/>
<feBlend mode="normal" in="SourceGraphic" in2="effect2_dropShadow_4_48" result="shape"/>
</filter>
</defs>
</svg>
